<?xml version="1.0" encoding="UTF-8" standalone="no"?>
<!-- Created with Inkscape (http://www.inkscape.org/) -->

<svg
   width="385.53906"
   height="415.77335"
   viewBox="0 0 385.53906 415.77335"
   version="1.1"
   id="svg5"
   xml:space="preserve"
   inkscape:version="1.2.2 (b0a8486541, 2022-12-01)"
   sodipodi:docname="SecuredSignalAPI_Logo.svg"
   inkscape:export-filename="../../Downloads/SecuredSignalAPI_shield.svg"
   inkscape:export-xdpi="96"
   inkscape:export-ydpi="96"
   xmlns:inkscape="http://www.inkscape.org/namespaces/inkscape"
   xmlns:sodipodi="http://sodipodi.sourceforge.net/DTD/sodipodi-0.dtd"
   xmlns="http://www.w3.org/2000/svg"
   xmlns:svg="http://www.w3.org/2000/svg"><sodipodi:namedview
     id="namedview7"
     pagecolor="#505050"
     bordercolor="#ffffff"
     borderopacity="1"
     inkscape:showpageshadow="0"
     inkscape:pageopacity="0"
     inkscape:pagecheckerboard="1"
     inkscape:deskcolor="#505050"
     inkscape:document-units="px"
     showgrid="false"
     inkscape:zoom="1.2275391"
     inkscape:cx="150.30072"
     inkscape:cy="88.388225"
     inkscape:window-width="2560"
     inkscape:window-height="1508"
     inkscape:window-x="0"
     inkscape:window-y="0"
     inkscape:window-maximized="1"
     inkscape:current-layer="layer1-9" /><defs
     id="defs2"><marker
       style="overflow:visible"
       id="Dot"
       refX="0"
       refY="0"
       orient="auto"
       inkscape:stockid="Dot"
       markerWidth="1"
       markerHeight="1"
       viewBox="0 0 5.6666667 5.6666667"
       inkscape:isstock="true"
       inkscape:collect="always"
       preserveAspectRatio="xMidYMid"><path
         transform="scale(0.5)"
         style="fill:context-stroke;fill-rule:evenodd;stroke:context-stroke;stroke-width:1pt"
         d="M 5,0 C 5,2.76 2.76,5 0,5 -2.76,5 -5,2.76 -5,0 c 0,-2.76 2.3,-5 5,-5 2.76,0 5,2.24 5,5 z"
         id="Dot1"
         sodipodi:nodetypes="sssss" /></marker><marker
       style="overflow:visible"
       id="Dot-2"
       refX="0"
       refY="0"
       orient="auto"
       inkscape:stockid="Dot"
       markerWidth="1"
       markerHeight="1"
       viewBox="0 0 5.6666667 5.6666667"
       inkscape:isstock="true"
       inkscape:collect="always"
       preserveAspectRatio="xMidYMid"><path
         transform="scale(0.5)"
         style="fill:context-stroke;fill-rule:evenodd;stroke:context-stroke;stroke-width:1pt"
         d="M 5,0 C 5,2.76 2.76,5 0,5 -2.76,5 -5,2.76 -5,0 c 0,-2.76 2.3,-5 5,-5 2.76,0 5,2.24 5,5 z"
         id="Dot1-2"
         sodipodi:nodetypes="sssss" /></marker></defs><g
     inkscape:groupmode="layer"
     id="g672"
     inkscape:label="Logo + Text (Background)"
     transform="matrix(0.73122246,0,0,0.73122246,127.44026,-134.16778)"
     style="display:none"><rect
       style="display:inline;fill:#ffffff;fill-opacity:1;stroke:none;stroke-width:48.9602;stroke-linejoin:round;stroke-dasharray:none;stroke-opacity:1;paint-order:stroke markers fill"
       id="rect652"
       width="755.29871"
       height="755.29871"
       x="-287.2117"
       y="76.178909"
       ry="94.632141"
       inkscape:label="Background" /><g
       inkscape:label="Logo"
       id="g662"
       transform="translate(-164.76156,100.22679)"><path
         id="path654"
         style="opacity:1;fill:none;fill-opacity:1;stroke:#06266c;stroke-width:30;stroke-linejoin:round;stroke-dasharray:none;stroke-opacity:1;paint-order:stroke markers fill"
         d="m 256,73.318359 c -40.22974,0 -178.570312,37.198821 -178.570312,49.697261 V 259.0332 c 0,0 -3.552302,129.16402 178.570312,200.0586 C 438.12262,388.19722 432.96875,259.0332 432.96875,259.0332 V 123.01562 C 432.96875,110.51718 296.75147,73.318359 256,73.318359 Z"
         inkscape:label="Shield"
         sodipodi:nodetypes="sscccss" /><g
         id="g660"
         inkscape:label="Waves"><path
           style="opacity:1;fill:none;fill-opacity:1;stroke:#0095ac;stroke-width:30;stroke-linejoin:round;stroke-dasharray:none;stroke-opacity:1;marker-start:url(#Dot-2);marker-end:url(#Dot-2);paint-order:stroke markers fill"
           d="m 146,275 c 0,0 5.75539,-104.29703 109,-107 103.24462,-2.70296 111,107 111,107"
           id="path656"
           sodipodi:nodetypes="csc"
           inkscape:label="Big" /><path
           style="opacity:1;fill:none;fill-opacity:1;stroke:#0095ac;stroke-width:30;stroke-linejoin:round;stroke-dasharray:none;stroke-opacity:1;marker-start:url(#Dot-2);marker-end:url(#Dot-2);paint-order:stroke markers fill"
           d="m 206.27507,275 c 0,0 2.55742,-45.79893 48.43434,-47 45.87692,-1.20107 49.32304,47 49.32304,47"
           id="path658"
           sodipodi:nodetypes="csc"
           inkscape:label="Small" /></g></g><text
       xml:space="preserve"
       style="font-style:normal;font-variant:normal;font-weight:normal;font-stretch:normal;font-size:113.333px;line-height:1;font-family:Roboto;-inkscape-font-specification:'Roboto, Normal';font-variant-ligatures:normal;font-variant-caps:normal;font-variant-numeric:normal;font-variant-east-asian:normal;text-align:center;letter-spacing:0px;text-anchor:middle;white-space:pre;inline-size:627.184;display:inline;opacity:1;fill:#052f76;fill-opacity:1;stroke:none;stroke-width:30;stroke-linejoin:round;stroke-dasharray:none;stroke-opacity:1;paint-order:stroke markers fill"
       x="-286.84369"
       y="780.7309"
       id="text670"
       transform="matrix(0.86447914,0,0,0.86447914,340.34558,-13.883113)"
       inkscape:label="Text"><tspan
         x="-286.84369"
         y="780.7309"
         id="tspan5960">Secured<tspan
   y="780.7309"
   id="tspan5962"> </tspan></tspan><tspan
         x="-286.84369"
         y="894.0639"
         id="tspan5964">Signal API</tspan></text></g><g
     inkscape:label="Logo"
     inkscape:groupmode="layer"
     id="layer1"
     style="display:inline"
     transform="translate(-62.429687,-58.318359)"><rect
       style="display:none;opacity:1;fill:#ffffff;fill-opacity:1;stroke:none;stroke-width:35.8008;stroke-linejoin:round;stroke-dasharray:none;stroke-opacity:1;paint-order:stroke markers fill"
       id="rect8832"
       width="552.29138"
       height="552.29138"
       x="-20.145691"
       y="-20.145691"
       ry="69.197144"
       inkscape:label="Background"
       transform="translate(2.1261646e-6)" /><path
       id="path5909"
       style="display:inline;opacity:1;fill:none;fill-opacity:1;stroke:#ffffff;stroke-width:30;stroke-linejoin:round;stroke-dasharray:none;stroke-opacity:1;paint-order:stroke markers fill"
       d="m 256,73.318359 c -40.22974,0 -178.570312,37.198821 -178.570312,49.697261 V 259.0332 c 0,0 -3.552302,129.16402 178.570312,200.0586 C 438.12262,388.19722 432.96875,259.0332 432.96875,259.0332 V 123.01562 C 432.96875,110.51718 296.75147,73.318359 256,73.318359 Z"
       inkscape:label="Shield"
       sodipodi:nodetypes="sscccss" /><g
       id="g9252"
       inkscape:label="Waves"
       style="display:none"><path
         style="opacity:1;fill:none;fill-opacity:1;stroke:#0095ac;stroke-width:30;stroke-linejoin:round;stroke-dasharray:none;stroke-opacity:1;marker-start:url(#Dot);marker-end:url(#Dot);paint-order:stroke markers fill"
         d="m 146,275 c 0,0 5.75539,-104.29703 109,-107 103.24462,-2.70296 111,107 111,107"
         id="path6845"
         sodipodi:nodetypes="csc"
         inkscape:label="Big" /><path
         style="opacity:1;fill:none;fill-opacity:1;stroke:#0095ac;stroke-width:30;stroke-linejoin:round;stroke-dasharray:none;stroke-opacity:1;marker-start:url(#Dot);marker-end:url(#Dot);paint-order:stroke markers fill"
         d="m 206.27507,275 c 0,0 2.55742,-45.79893 48.43434,-47 45.87692,-1.20107 49.32304,47 49.32304,47"
         id="path8230"
         sodipodi:nodetypes="csc"
         inkscape:label="Small" /></g></g><g
     inkscape:label="Logo (Filled)"
     inkscape:groupmode="layer"
     id="g731"
     style="display:none"
     transform="translate(-62.429687,-58.318359)"><path
       id="path1356"
       style="display:inline;opacity:1;fill:#ffffff;fill-opacity:1;stroke:#06266c;stroke-width:30;stroke-linejoin:round;stroke-dasharray:none;stroke-opacity:1;paint-order:stroke markers fill"
       d="m 256,73.318359 c -40.22974,0 -178.570312,37.198821 -178.570312,49.697261 V 259.0332 c 0,0 -3.552302,129.16402 178.570312,200.0586 C 438.12262,388.19722 432.96875,259.0332 432.96875,259.0332 V 123.01562 C 432.96875,110.51718 296.75147,73.318359 256,73.318359 Z"
       inkscape:label="Background"
       sodipodi:nodetypes="sscccss" /><path
       id="path723"
       style="opacity:1;fill:none;fill-opacity:1;stroke:#06266c;stroke-width:30;stroke-linejoin:round;stroke-dasharray:none;stroke-opacity:1;paint-order:stroke markers fill"
       d="m 256,73.318359 c -40.22974,0 -178.570312,37.198821 -178.570312,49.697261 V 259.0332 c 0,0 -3.552302,129.16402 178.570312,200.0586 C 438.12262,388.19722 432.96875,259.0332 432.96875,259.0332 V 123.01562 C 432.96875,110.51718 296.75147,73.318359 256,73.318359 Z"
       inkscape:label="Shield"
       sodipodi:nodetypes="sscccss" /><g
       id="g729"
       inkscape:label="Waves"><path
         style="opacity:1;fill:none;fill-opacity:1;stroke:#0095ac;stroke-width:30;stroke-linejoin:round;stroke-dasharray:none;stroke-opacity:1;marker-start:url(#Dot);marker-end:url(#Dot);paint-order:stroke markers fill"
         d="m 146,275 c 0,0 5.75539,-104.29703 109,-107 103.24462,-2.70296 111,107 111,107"
         id="path725"
         sodipodi:nodetypes="csc"
         inkscape:label="Big" /><path
         style="opacity:1;fill:none;fill-opacity:1;stroke:#0095ac;stroke-width:30;stroke-linejoin:round;stroke-dasharray:none;stroke-opacity:1;marker-start:url(#Dot);marker-end:url(#Dot);paint-order:stroke markers fill"
         d="m 206.27507,275 c 0,0 2.55742,-45.79893 48.43434,-47 45.87692,-1.20107 49.32304,47 49.32304,47"
         id="path727"
         sodipodi:nodetypes="csc"
         inkscape:label="Small" /></g></g><g
     inkscape:groupmode="layer"
     id="g854"
     inkscape:label="Logo + Text (Banner)"
     transform="matrix(0.73122246,0,0,0.73122246,127.44026,-134.16778)"
     style="display:none"><rect
       style="display:inline;fill:#ffffff;fill-opacity:1;stroke:none;stroke-width:69.8003;stroke-linejoin:round;stroke-dasharray:none;stroke-opacity:1;paint-order:stroke markers fill"
       id="rect838"
       width="1535.1379"
       height="755.29871"
       x="-310.62177"
       y="76.178909"
       ry="94.632141"
       inkscape:label="Background" /><g
       inkscape:label="Logo"
       id="g848"
       transform="matrix(1.063244,0,0,1.063244,185.60815,96.538505)"><path
         id="path840"
         style="opacity:1;fill:none;fill-opacity:1;stroke:#06266c;stroke-width:30;stroke-linejoin:round;stroke-dasharray:none;stroke-opacity:1;paint-order:stroke markers fill"
         d="m 256,73.318359 c -40.22974,0 -178.570312,37.198821 -178.570312,49.697261 V 259.0332 c 0,0 -3.552302,129.16402 178.570312,200.0586 C 438.12262,388.19722 432.96875,259.0332 432.96875,259.0332 V 123.01562 C 432.96875,110.51718 296.75147,73.318359 256,73.318359 Z"
         inkscape:label="Shield"
         sodipodi:nodetypes="sscccss" /><g
         id="g846"
         inkscape:label="Waves"><path
           style="opacity:1;fill:none;fill-opacity:1;stroke:#0095ac;stroke-width:30;stroke-linejoin:round;stroke-dasharray:none;stroke-opacity:1;marker-start:url(#Dot-2);marker-end:url(#Dot-2);paint-order:stroke markers fill"
           d="m 146,275 c 0,0 5.75539,-104.29703 109,-107 103.24462,-2.70296 111,107 111,107"
           id="path842"
           sodipodi:nodetypes="csc"
           inkscape:label="Big" /><path
           style="opacity:1;fill:none;fill-opacity:1;stroke:#0095ac;stroke-width:30;stroke-linejoin:round;stroke-dasharray:none;stroke-opacity:1;marker-start:url(#Dot-2);marker-end:url(#Dot-2);paint-order:stroke markers fill"
           d="m 206.27507,275 c 0,0 2.55742,-45.79893 48.43434,-47 45.87692,-1.20107 49.32304,47 49.32304,47"
           id="path844"
           sodipodi:nodetypes="csc"
           inkscape:label="Small" /></g></g><text
       xml:space="preserve"
       style="font-style:normal;font-variant:normal;font-weight:normal;font-stretch:normal;font-size:113.333px;line-height:1;font-family:Roboto;-inkscape-font-specification:'Roboto, Normal';font-variant-ligatures:normal;font-variant-caps:normal;font-variant-numeric:normal;font-variant-east-asian:normal;text-align:center;letter-spacing:0px;text-anchor:middle;white-space:pre;inline-size:1411.83;display:inline;opacity:1;fill:#052f76;fill-opacity:1;stroke:none;stroke-width:30;stroke-linejoin:round;stroke-dasharray:none;stroke-opacity:1;paint-order:stroke markers fill"
       x="-286.84369"
       y="780.7309"
       id="text852"
       transform="matrix(0.86447914,0,0,0.86447914,706.85511,44.277912)"
       inkscape:label="Name"><tspan
         x="-286.84369"
         y="780.7309"
         id="tspan5966">Secured Signal API</tspan></text></g><g
     inkscape:groupmode="layer"
     id="g502"
     inkscape:label="Logo + Description (Banner)"
     transform="matrix(0.73122246,0,0,0.73122246,127.44026,-134.16778)"
     style="display:none"><rect
       style="display:inline;fill:#ffffff;fill-opacity:1;stroke:none;stroke-width:69.8003;stroke-linejoin:round;stroke-dasharray:none;stroke-opacity:1;paint-order:stroke markers fill"
       id="rect486"
       width="1535.1379"
       height="755.29871"
       x="-310.62177"
       y="76.178909"
       ry="94.632141"
       inkscape:label="Background" /><text
       xml:space="preserve"
       style="font-style:normal;font-variant:normal;font-weight:normal;font-stretch:normal;font-size:113.333px;line-height:1;font-family:Roboto;-inkscape-font-specification:'Roboto, Normal';font-variant-ligatures:normal;font-variant-caps:normal;font-variant-numeric:normal;font-variant-east-asian:normal;text-align:center;letter-spacing:0px;text-anchor:middle;white-space:pre;inline-size:1411.83;display:inline;opacity:1;fill:#052f76;fill-opacity:1;stroke:none;stroke-width:30;stroke-linejoin:round;stroke-dasharray:none;stroke-opacity:1;paint-order:stroke markers fill"
       x="-286.84369"
       y="780.7309"
       id="text500"
       transform="matrix(0.77873857,0,0,0.77873857,682.0688,62.025814)"
       inkscape:label="Name"><tspan
         x="-286.84369"
         y="780.7309"
         id="tspan5968">Secured Signal API</tspan></text><text
       xml:space="preserve"
       style="font-style:normal;font-variant:normal;font-weight:normal;font-stretch:normal;font-size:113.333px;line-height:1;font-family:Roboto;-inkscape-font-specification:'Roboto, Normal';font-variant-ligatures:normal;font-variant-caps:normal;font-variant-numeric:normal;font-variant-east-asian:normal;text-align:center;letter-spacing:0px;text-anchor:middle;white-space:pre;inline-size:2351.09;display:inline;opacity:1;fill:#052f76;fill-opacity:1;stroke:none;stroke-width:30;stroke-linejoin:round;stroke-dasharray:none;stroke-opacity:1;paint-order:stroke markers fill"
       x="-286.84369"
       y="780.7309"
       id="text674"
       transform="matrix(0.40542777,0,0,0.40542777,574.15026,422.49044)"
       inkscape:label="Description"><tspan
         x="-286.84369"
         y="780.7309"
         id="tspan5970">Secure Proxy for Signal REST API</tspan></text><g
       inkscape:label="Logo"
       id="g870"
       transform="matrix(1.0074192,0,0,1.0074192,199.8546,84.419252)"
       style="display:inline"><path
         id="path862"
         style="opacity:1;fill:none;fill-opacity:1;stroke:#06266c;stroke-width:30;stroke-linejoin:round;stroke-dasharray:none;stroke-opacity:1;paint-order:stroke markers fill"
         d="m 256,73.318359 c -40.22974,0 -178.570312,37.198821 -178.570312,49.697261 V 259.0332 c 0,0 -3.552302,129.16402 178.570312,200.0586 C 438.12262,388.19722 432.96875,259.0332 432.96875,259.0332 V 123.01562 C 432.96875,110.51718 296.75147,73.318359 256,73.318359 Z"
         inkscape:label="Shield"
         sodipodi:nodetypes="sscccss" /><g
         id="g868"
         inkscape:label="Waves"><path
           style="opacity:1;fill:none;fill-opacity:1;stroke:#0095ac;stroke-width:30;stroke-linejoin:round;stroke-dasharray:none;stroke-opacity:1;marker-start:url(#Dot-2);marker-end:url(#Dot-2);paint-order:stroke markers fill"
           d="m 146,275 c 0,0 5.75539,-104.29703 109,-107 103.24462,-2.70296 111,107 111,107"
           id="path864"
           sodipodi:nodetypes="csc"
           inkscape:label="Big" /><path
           style="opacity:1;fill:none;fill-opacity:1;stroke:#0095ac;stroke-width:30;stroke-linejoin:round;stroke-dasharray:none;stroke-opacity:1;marker-start:url(#Dot-2);marker-end:url(#Dot-2);paint-order:stroke markers fill"
           d="m 206.27507,275 c 0,0 2.55742,-45.79893 48.43434,-47 45.87692,-1.20107 49.32304,47 49.32304,47"
           id="path866"
           sodipodi:nodetypes="csc"
           inkscape:label="Small" /></g></g></g></svg>
